# xmcd CD database file
#
# Track frame offsets:
#	150
#	19407
#	35195
#	57570
#	75847
#	96485
#	113087
#	133500
#	155837
#	171750
#
# Disc length: 2600 seconds
#
# Revision: 0
# Processed by: cddbd v1.5.1PL2 Copyright (c) Steve Scherf et al.
# Submitted via: CDex 1.51
#
DISCID=860a260a
DTITLE=長谷川真奈 - Stories
DYEAR=1995
DGENRE=J-Pop
TTITLE0=イエスタデイズは通り雨
TTITLE1=Lucky One
TTITLE2=Only One In Love
TTITLE3=Hold On
TTITLE4=Rain-想い出にかわるまで
TTITLE5=月夜のパズル
TTITLE6=土曜日のジュリエット
TTITLE7=銀河飛行
TTITLE8=Miracles
TTITLE9=真冬のファウンテン
EXTD=YEAR: 1995
EXTT0=
EXTT1=
EXTT2=
EXTT3=
EXTT4=
EXTT5=
EXTT6=
EXTT7=
EXTT8=
EXTT9=
PLAYORDER=
